<?xml version="1.0" encoding="UTF-8"?>
<svg width="44px" height="50px" viewBox="0 0 44 50" version="1.1" xmlns="http://www.w3.org/2000/svg" xmlns:xlink="http://www.w3.org/1999/xlink">
    <title>graphic / upload document</title>
    <g id="Page-1" stroke="none" stroke-width="1" fill="none" fill-rule="evenodd">
        <g id="202.2-Requestor-Form---sc-team" transform="translate(-146.000000, -1039.000000)" fill-rule="nonzero">
            <g id="Group-6" transform="translate(52.000000, 966.000000)">
                <g id="upload-attachment" transform="translate(0.000000, 25.000000)">
                    <g id="drag-drop-area" transform="translate(0.000000, 33.000000)">
                        <g id="graphic-/-upload-document" transform="translate(94.500000, 15.000000)">
                            <path d="M28.7285354,0 L1.63257576,0 C1.10703077,0.000589231907 0.681137538,0.431787285 0.680555556,0.963878327 L0.680555556,38.0361217 C0.681150425,38.5682073 1.10703612,38.9993977 1.63257576,39 L28.7285354,39 C29.2540698,38.9993851 29.6799482,38.5682021 29.6805556,38.0361217 L29.6805556,0.963878327 C29.6799607,0.431792698 29.254075,0.000602279485 28.7285354,0 Z" id="Path" fill="#D3DBEB"></path>
                            <path d="M3.34117135,1 C2.97081249,1.00635847 2.67537143,1.31496251 2.68055556,1.6899766 L2.68055556,37.3100234 C2.67537143,37.6850375 2.97081249,37.9936415 3.34117135,38 L29.0199398,38 C29.3902986,37.9936415 29.6857397,37.6850375 29.6805556,37.3100234 L29.6805556,1.6899766 C29.6857397,1.31496251 29.3902986,1.00635847 29.0199398,1 L3.34117135,1 Z" id="Path" fill="#FFFFFF"></path>
                            <path d="M4.12637599,3 C3.88053648,3 3.68055556,3.23069165 3.68055556,3.51428582 L3.68055556,8.48571418 C3.68055556,8.76930911 3.88053648,9 4.12637599,9 L27.2347351,9 C27.4805746,9 27.6805556,8.76930835 27.6805556,8.48571418 L27.6805556,3.51428582 C27.6805556,3.23069089 27.4805746,3 27.2347351,3 L4.12637599,3 Z" id="Path" fill="#E9EDF5"></path>
                            <path d="M4.1264128,11 C3.87679676,11.0040902 3.67738294,11.2216946 3.68055556,11.4864867 L3.68055556,22.5135133 C3.67738294,22.7783054 3.87679676,22.9959098 4.1264128,23 L27.2346983,23 C27.4843144,22.9959098 27.6837282,22.7783054 27.6805556,22.5135133 L27.6805556,11.4864867 C27.6837282,11.2216946 27.4843144,11.0040902 27.2346983,11 L4.1264128,11 Z" id="Path" fill="#E9EDF5"></path>
                            <rect id="Rectangle" fill="#FFFFFF" x="6.68055556" y="4" width="18" height="1"></rect>
                            <rect id="Rectangle" fill="#FFFFFF" x="6.68055556" y="5" width="18" height="1"></rect>
                            <rect id="Rectangle" fill="#FFFFFF" x="6.68055556" y="7" width="18" height="1"></rect>
                            <path d="M16.9331472,23 L25.4077524,23 C25.5180853,23 25.6175514,22.9323636 25.6597773,22.8286456 C25.7020032,22.7249277 25.678675,22.6055411 25.6006688,22.5261466 L20.1768063,17.0073021 C20.0702004,16.8990755 19.8976146,16.8990755 19.7910087,17.0073021 L18.4422349,18.3796954 C18.3349374,18.4889009 18.1893936,18.5502544 18.0376318,18.5502544 C17.8858701,18.5502544 17.7403263,18.4889009 17.6330288,18.3796954 L13.4084825,14.0811694 C13.301862,13.9729435 13.1292687,13.9729435 13.0226482,14.0811694 L4.76044234,22.4880627 C4.6824361,22.5674572 4.65910786,22.6868438 4.70133378,22.7905618 C4.7435597,22.8942798 4.84302579,22.9619078 4.95335871,22.9619162 L16.9440029,22.9619162 L16.9331472,23 Z" id="Path" fill="#FFFFFF"></path>
                            <circle id="Oval" fill="#FFFFFF" cx="7.68055556" cy="14" r="1"></circle>
                            <path d="M4.1264128,24 C3.87679676,24.0040902 3.67738294,24.2216946 3.68055556,24.4864867 L3.68055556,35.5135133 C3.67738294,35.7783054 3.87679676,35.9959098 4.1264128,36 L27.2346983,36 C27.4843144,35.9959098 27.6837282,35.7783054 27.6805556,35.5135133 L27.6805556,24.4864867 C27.6837282,24.2216946 27.4843144,24.0040902 27.2346983,24 L4.1264128,24 Z" id="Path" fill="#E9EDF5"></path>
                            <path d="M16.9331479,36 L25.4077569,36 C25.5180921,36 25.617554,35.932341 25.659778,35.828619 C25.702002,35.724897 25.6786759,35.6055082 25.6006733,35.5261061 L20.1768084,30.0072664 C20.0701726,29.8991127 19.8976466,29.8991127 19.7910107,30.0072664 L18.4422364,31.3796314 C18.3349547,31.4888823 18.1893964,31.5502664 18.0376148,31.5502664 C17.8858331,31.5502664 17.7402748,31.4888823 17.6329932,31.3796314 L13.4084817,27.0811144 C13.3018311,26.9729619 13.1292979,26.9729619 13.0226473,27.0811144 L4.76043777,35.488022 C4.68243521,35.5674241 4.65910913,35.686813 4.7013331,35.790535 C4.74355708,35.894257 4.84301899,35.9618937 4.95335423,35.9619159 L16.9440037,35.9619159 L16.9331479,36 Z" id="Path" fill="#FFFFFF"></path>
                            <circle id="Oval" fill="#FFFFFF" cx="7.68055556" cy="27" r="1"></circle>
                            <path d="M11.353236,9 C10.9819036,9.00043439 10.6809868,9.3035547 10.6805556,9.67760618 L10.6805556,47.3223938 C10.680974,47.6964506 10.9818983,47.9995784 11.353236,48 L39.0078751,48 C39.3792183,47.9995917 39.6801502,47.6964561 39.6805556,47.3223938 L39.6805556,9.67760618 C39.6801371,9.30354937 39.3792128,9.00042156 39.0078751,9 L11.353236,9 Z" id="Path" fill="#D3DBEB"></path>
                            <path d="M12.3411714,10 C11.9708125,10.0063585 11.6753714,10.3149625 11.6805556,10.6899766 L11.6805556,46.3100234 C11.6753714,46.6850375 11.9708125,46.9936415 12.3411714,47 L38.0199398,47 C38.3902986,46.9936415 38.6857397,46.6850375 38.6805556,46.3100234 L38.6805556,10.6899766 C38.6857397,10.3149625 38.3902986,10.0063585 38.0199398,10 L12.3411714,10 Z" id="Path" fill="#FFFFFF"></path>
                            <path d="M16.9756375,15 C16.8127454,15.0001915 16.6807417,15.1359623 16.6805556,15.303503 L16.6805556,16.696497 C16.6807417,16.8640377 16.8127454,16.9998085 16.9756375,17 L34.3854736,17 C34.5483709,16.9998214 34.6805556,16.864043 34.6805556,16.696497 L34.6805556,15.303503 C34.6805556,15.135957 34.5483709,15.0001786 34.3854736,15 L16.9756375,15 Z" id="Path" fill="#0676ED"></path>
                            <path d="M16.7549357,19 C16.7138789,19.0000787 16.6805556,19.0488725 16.6805556,19.1090869 L16.6805556,19.8909131 C16.6805556,19.9511277 16.7138788,19.9999219 16.7549357,20 L34.6061754,20 C34.6472374,19.9999399 34.6805556,19.9511352 34.6805556,19.8909131 L34.6805556,19.1090869 C34.6805556,19.0488648 34.6472374,19.0000601 34.6061754,19 L16.7549357,19 Z" id="Path" fill="#EAF0FB"></path>
                            <path d="M16.7549357,21 C16.7138788,21.0000781 16.6805556,21.0488723 16.6805556,21.1090869 L16.6805556,21.8909131 C16.6805556,21.9511277 16.7138788,21.9999219 16.7549357,22 L34.6061754,22 C34.6472374,21.9999399 34.6805556,21.9511352 34.6805556,21.8909131 L34.6805556,21.1090869 C34.6805556,21.0488648 34.6472374,21.0000601 34.6061754,21 L16.7549357,21 Z" id="Path" fill="#EAF0FB"></path>
                            <path d="M16.7549357,23 C16.7138788,23.0000781 16.6805556,23.0488749 16.6805556,23.1090929 L16.6805556,23.8909071 C16.6805556,23.9511251 16.7138788,23.9999219 16.7549357,24 L34.6061754,24 C34.6472374,23.9999399 34.6805556,23.9511325 34.6805556,23.8909071 L34.6805556,23.1090929 C34.6805556,23.0488675 34.6472374,23.0000601 34.6061754,23 L16.7549357,23 Z" id="Path" fill="#EAF0FB"></path>
                            <path d="M16.7549357,26 C16.7138788,26.0000781 16.6805556,26.0488749 16.6805556,26.1090929 L16.6805556,26.8909071 C16.6805556,26.9511251 16.7138788,26.9999219 16.7549357,27 L34.6061754,27 C34.6472374,26.9999399 34.6805556,26.9511325 34.6805556,26.8909071 L34.6805556,26.1090929 C34.6805556,26.0488675 34.6472374,26.0000601 34.6061754,26 L16.7549357,26 Z" id="Path" fill="#EAF0FB"></path>
                            <path d="M16.7549357,28 C16.7138788,28.0000781 16.6805556,28.0488749 16.6805556,28.1090929 L16.6805556,28.8909071 C16.6805556,28.9511251 16.7138788,28.9999219 16.7549357,29 L34.6061754,29 C34.6472374,28.9999399 34.6805556,28.9511325 34.6805556,28.8909071 L34.6805556,28.1090929 C34.6805556,28.0488675 34.6472374,28.0000601 34.6061754,28 L16.7549357,28 Z" id="Path" fill="#EAF0FB"></path>
                            <path d="M16.7549357,30 C16.7138737,30.0000601 16.6805556,30.0488648 16.6805556,30.1090869 L16.6805556,30.8909131 C16.6805556,30.9511352 16.7138737,30.9999399 16.7549357,31 L34.6061754,31 C34.647243,30.9999597 34.6805556,30.9511434 34.6805556,30.8909131 L34.6805556,30.1090869 C34.6805556,30.0488566 34.647243,30.0000403 34.6061754,30 L16.7549357,30 Z" id="Path" fill="#EAF0FB"></path>
                            <path d="M16.7549357,32 C16.7138737,32.0000601 16.6805556,32.0488648 16.6805556,32.1090869 L16.6805556,32.8909131 C16.6805556,32.9511352 16.7138737,32.9999399 16.7549357,33 L34.6061754,33 C34.647243,32.9999597 34.6805556,32.9511434 34.6805556,32.8909131 L34.6805556,32.1090869 C34.6805556,32.0488566 34.647243,32.0000403 34.6061754,32 L16.7549357,32 Z" id="Path" fill="#EAF0FB"></path>
                            <path d="M16.7549357,33 C16.7138737,33.0000601 16.6805556,33.0488648 16.6805556,33.1090869 L16.6805556,33.8909131 C16.6805556,33.9511352 16.7138737,33.9999399 16.7549357,34 L34.6061754,34 C34.647243,33.9999597 34.6805556,33.9511434 34.6805556,33.8909131 L34.6805556,33.1090869 C34.6805556,33.0488566 34.647243,33.0000403 34.6061754,33 L16.7549357,33 Z" id="Path" fill="#EAF0FB"></path>
                            <path d="M16.7549357,35 C16.7138737,35.0000601 16.6805556,35.0488648 16.6805556,35.1090869 L16.6805556,35.8909131 C16.6805556,35.9511352 16.7138737,35.9999399 16.7549357,36 L34.6061754,36 C34.647243,35.9999597 34.6805556,35.9511434 34.6805556,35.8909131 L34.6805556,35.1090869 C34.6805556,35.0488566 34.647243,35.0000403 34.6061754,35 L16.7549357,35 Z" id="Path" fill="#EAF0FB"></path>
                            <path d="M16.7549357,37 C16.7138737,37.0000601 16.6805556,37.0488648 16.6805556,37.1090869 L16.6805556,37.8909131 C16.6805556,37.9511352 16.7138737,37.9999399 16.7549357,38 L34.6061754,38 C34.647243,37.9999597 34.6805556,37.9511434 34.6805556,37.8909131 L34.6805556,37.1090869 C34.6805556,37.0488566 34.647243,37.0000403 34.6061754,37 L16.7549357,37 Z" id="Path" fill="#EAF0FB"></path>
                            <path d="M16.7549357,39 C16.7138737,39.0000601 16.6805556,39.0488648 16.6805556,39.1090869 L16.6805556,39.8909131 C16.6805556,39.9511352 16.7138737,39.9999399 16.7549357,40 L34.6061754,40 C34.647243,39.9999597 34.6805556,39.9511434 34.6805556,39.8909131 L34.6805556,39.1090869 C34.6805556,39.0488566 34.647243,39.0000403 34.6061754,39 L16.7549357,39 Z" id="Path" fill="#EAF0FB"></path>
                            <path d="M16.7549357,40 C16.7138737,40.0000601 16.6805556,40.0488648 16.6805556,40.1090869 L16.6805556,40.8909131 C16.6805556,40.9511352 16.7138737,40.9999399 16.7549357,41 L34.6061754,41 C34.647243,40.9999597 34.6805556,40.9511434 34.6805556,40.8909131 L34.6805556,40.1090869 C34.6805556,40.0488566 34.647243,40.0000403 34.6061754,40 L16.7549357,40 Z" id="Path" fill="#EAF0FB"></path>
                            <circle id="Oval" fill="#0676ED" cx="37.6805556" cy="45" r="5"></circle>
                            <polygon id="Path" fill="#FFFFFF" points="36.5617977 47 34.6805556 44.7748608 35.7745172 43.9919591 36.6652875 45.0455972 39.7646543 42 40.6805556 43.0003416"></polygon>
                        </g>
                    </g>
                </g>
            </g>
        </g>
    </g>
</svg>