<?xml version="1.0" encoding="UTF-8"?>
<svg width="48px" height="38px" viewBox="0 0 48 38" version="1.1" xmlns="http://www.w3.org/2000/svg" xmlns:xlink="http://www.w3.org/1999/xlink">
    <title>Group 17</title>
    <g id="Page-1" stroke="none" stroke-width="1" fill="none" fill-rule="evenodd">
        <g id="Group-17" transform="translate(1.000000, 1.000000)" fill-rule="nonzero">
            <path d="M33.372549,33.3084982 L33.372549,13.2471583 C33.372549,11.6527187 32.0714496,10.3550447 30.4721251,10.3550447 L10.1004269,10.3550447 C9.54793297,10.3550447 9.03871887,10.0542326 8.77227753,9.5713143 L8.28132211,8.68101808 C7.77210815,7.75699861 6.79763604,7.18235294 5.73998553,7.18235294 L2.90042388,7.18235294 C1.3010994,7.18235294 4.97379915e-14,8.480027 4.97379915e-14,10.0744665 L4.97379915e-14,33.3084982 C4.97379915e-14,34.9042866 1.3010994,36.2019608 2.90042388,36.2019608 L30.4721251,36.2019608 C32.0714496,36.2019608 33.372549,34.9042866 33.372549,33.3084982 Z M2.90042401,8.56366091 L5.73998567,8.56366091 C6.29247958,8.56366091 6.80169368,8.86447305 7.06813502,9.3473913 L7.55909044,10.2376875 C8.06830454,11.161707 9.04277665,11.7363527 10.100427,11.7363527 L30.4721253,11.7363527 C31.3079665,11.7363527 31.9875949,12.4135173 31.9875949,13.2471583 L31.9875949,15.4836901 L1.38495422,15.4836901 L1.38495422,10.0744665 C1.38495422,9.2408256 2.06458248,8.56366091 2.90042401,8.56366091 Z M1.38495422,33.3084982 L1.38495422,16.864998 L31.9875949,16.864998 L31.9875949,33.3084982 C31.9875949,34.1421391 31.3079665,34.8206528 30.4721251,34.8206528 L2.90042401,34.8206528 C2.06458248,34.8206528 1.38495422,34.1421391 1.38495422,33.3084982 Z" id="Shape" stroke="#4B74FF" stroke-width="0.6" fill="#4B74FF"></path>
            <path d="M17.2096476,21.7002477 C18.5553694,21.5927916 19.7545363,22.5672325 19.9607388,23.9357794 C20.0748967,24.6904646 19.8637943,25.4587999 19.3822634,26.0412177 L19.3822634,26.0412177 L20.2444671,28.5225262 C20.4561004,29.1070264 20.1664651,29.7569578 19.5971257,29.9751374 L19.5971257,29.9751374 L19.3320476,30.074255 C17.9983013,30.5368039 16.5449141,30.5037647 15.2282594,29.9751374 L15.2282594,29.9751374 C14.6576424,29.7569475 14.3683421,29.1090309 14.5781632,28.5253523 L14.5781632,28.5253523 L15.4376124,26.0412177 C15.045721,25.5675822 14.8300395,24.9668339 14.8288359,24.3455627 C14.8261591,22.9607642 15.8639258,21.8077038 17.2096476,21.7002477 Z M17.4126925,23.0941026 C16.9001741,23.0941026 16.4438549,23.42703 16.2756166,23.9237053 C16.1073783,24.4203807 16.2641166,24.9718802 16.6661838,25.2979556 L16.6661838,25.2979556 C16.8933002,25.4856508 16.9817972,25.8022893 16.8838008,26.0864352 L16.8838008,26.0864352 L15.9637495,28.7429614 C16.9038321,29.0614228 17.9187983,29.0614228 18.8588809,28.7429614 L18.8588809,28.7429614 L17.9388296,26.0864352 C17.8408332,25.8022893 17.9293302,25.4856508 18.1592012,25.2979556 C18.5612684,24.9718802 18.7180067,24.4203807 18.5497685,23.9237053 C18.3815302,23.42703 17.9252109,23.0941026 17.4126925,23.0941026 Z" id="Combined-Shape" fill="#4B74FF"></path>
            <g id="Group-10" transform="translate(24.086275, 0.000000)">
                <path d="M10.4833333,0 C4.69355049,0 0,4.69355049 0,10.4833333 C0,16.2731162 4.69355049,20.9666667 10.4833333,20.9666667 C16.2731162,20.9666667 20.9666667,16.2731162 20.9666667,10.4833333 C20.9605241,4.69613915 16.2705714,0.00618646231 10.4833333,0 Z" id="Shape" stroke="#4B74FF" stroke-width="1.5" fill="#FFFFFF"></path>
                <path d="M15.1156127,10.7177371 L11.4601523,10.7177371 L11.4601523,6.20188911 C11.4601523,5.48246894 11.1252954,4.93333333 10.6468957,4.93333333 C10.168496,4.93333333 9.86666667,5.48246894 9.86666667,6.20188911 L9.86666667,11.0311002 C9.86666667,11.7501896 10.3658786,12.3333333 10.9814696,12.3333333 L15.1156127,12.3333333 C15.7314867,12.3333333 16.0333333,12.2115496 16.0333333,11.4924602 C16.0333333,10.77304 15.7314867,10.7177371 15.1156127,10.7177371 Z" id="Path" fill="#4B74FF"></path>
            </g>
        </g>
    </g>
</svg>