<?xml version="1.0" encoding="UTF-8"?>
<svg width="36px" height="32px" viewBox="0 0 36 32" version="1.1" xmlns="http://www.w3.org/2000/svg" xmlns:xlink="http://www.w3.org/1999/xlink">
    <title>Group 5</title>
    <defs>
        <filter id="filter-1">
            <feColorMatrix in="SourceGraphic" type="matrix" values="0 0 0 0 0.000000 0 0 0 0 0.443137 0 0 0 0 0.917647 0 0 0 1.000000 0"></feColorMatrix>
        </filter>
    </defs>
    <g id="Page-1" stroke="none" stroke-width="1" fill="none" fill-rule="evenodd">
        <g id="Group-18-Copy" transform="translate(-69.000000, -161.000000)" filter="url(#filter-1)">
            <g transform="translate(50.000000, 139.000000)" id="Group-30-Copy-7" fill="#C1BEBE" fill-rule="nonzero">
                <g id="Group-5" transform="translate(20.313725, 23.215686)">
                    <path d="M33.372549,26.1261453 L33.372549,6.06480531 C33.372549,4.4703658 32.0714496,3.17269175 30.4721251,3.17269175 L10.1004269,3.17269175 C9.54793297,3.17269175 9.03871887,2.87187961 8.77227753,2.38896136 L8.28132211,1.49866514 C7.77210815,0.574645664 6.79763604,-7.10542736e-15 5.73998553,-7.10542736e-15 L2.90042388,-7.10542736e-15 C1.3010994,-7.10542736e-15 -3.55271368e-15,1.29767406 -3.55271368e-15,2.89211356 L-3.55271368e-15,26.1261453 C-3.55271368e-15,27.7219336 1.3010994,29.0196078 2.90042388,29.0196078 L30.4721251,29.0196078 C32.0714496,29.0196078 33.372549,27.7219336 33.372549,26.1261453 Z M2.90042401,1.38130797 L5.73998567,1.38130797 C6.29247958,1.38130797 6.80169368,1.6821201 7.06813502,2.16503836 L7.55909044,3.05533458 C8.06830454,3.97935405 9.04277665,4.55399972 10.100427,4.55399972 L30.4721253,4.55399972 C31.3079665,4.55399972 31.9875949,5.2311644 31.9875949,6.06480531 L31.9875949,8.30133713 L1.38495422,8.30133713 L1.38495422,2.89211356 C1.38495422,2.05847266 2.06458248,1.38130797 2.90042401,1.38130797 Z M1.38495422,26.1261453 L1.38495422,9.6826451 L31.9875949,9.6826451 L31.9875949,26.1261453 C31.9875949,26.9597862 31.3079665,27.6382999 30.4721251,27.6382999 L2.90042401,27.6382999 C2.06458248,27.6382999 1.38495422,26.9597862 1.38495422,26.1261453 Z" id="Shape" stroke="#C1BEBE" stroke-width="0.6"></path>
                    <path d="M17.2096476,14.5178948 C18.5553694,14.4104387 19.7545363,15.3848795 19.9607388,16.7534264 C20.0748967,17.5081116 19.8637943,18.276447 19.3822634,18.8588648 L19.3822634,18.8588648 L20.2444671,21.3401733 C20.4561004,21.9246735 20.1664651,22.5746048 19.5971257,22.7927844 L19.5971257,22.7927844 L19.3320476,22.8919021 C17.9983013,23.3544509 16.5449141,23.3214117 15.2282594,22.7927844 L15.2282594,22.7927844 C14.6576424,22.5745946 14.3683421,21.926678 14.5781632,21.3429994 L14.5781632,21.3429994 L15.4376124,18.8588648 C15.045721,18.3852292 14.8300395,17.7844809 14.8288359,17.1632097 C14.8261591,15.7784113 15.8639258,14.6253509 17.2096476,14.5178948 Z M17.4126925,15.9117497 C16.9001741,15.9117497 16.4438549,16.2446771 16.2756166,16.7413524 C16.1073783,17.2380277 16.2641166,17.7895273 16.6661838,18.1156026 L16.6661838,18.1156026 C16.8933002,18.3032979 16.9817972,18.6199364 16.8838008,18.9040822 L16.8838008,18.9040822 L15.9637495,21.5606084 C16.9038321,21.8790698 17.9187983,21.8790698 18.8588809,21.5606084 L18.8588809,21.5606084 L17.9388296,18.9040822 C17.8408332,18.6199364 17.9293302,18.3032979 18.1592012,18.1156026 C18.5612684,17.7895273 18.7180067,17.2380277 18.5497685,16.7413524 C18.3815302,16.2446771 17.9252109,15.9117497 17.4126925,15.9117497 Z" id="Combined-Shape"></path>
                </g>
            </g>
        </g>
    </g>
</svg>